<svg width="430" height="289" viewBox="0 0 430 289" fill="none" xmlns="http://www.w3.org/2000/svg">
  <g class="leaves-border-opacity">
    <path d="M362.917 35.8101C366.898 36.8341 378.276 35.4689 377.707 36.379C377.138 37.2892 362.689 45.2532 358.479 45.1394C354.27 45.0256 349.946 43.7844 349.378 39.6784C348.95 36.5872 350.174 32.8521 353.132 32.6246C356.09 32.3971 358.935 34.7862 362.917 35.8101Z" fill="black" />
    <path d="M372.928 28.3013C374.521 30.3492 377.934 32.6246 378.276 33.6485C378.617 34.6724 367.76 36.5985 362.234 33.6485C359.239 32.0497 355.294 32.1695 355.863 27.7325C356.432 23.2954 362.575 21.2475 365.533 21.4751C368.491 21.7026 371.336 26.2534 372.928 28.3013Z" fill="black" />
    <path d="M379.527 25.7984C379.397 26.5745 379.78 33.4029 380.892 33.6486C382.004 33.8942 383.332 29.0022 384.874 26.9361C386.416 24.8699 390.878 20.7088 390.79 19.541C390.703 18.3732 385.464 20.7088 383.737 21.1338C382.01 21.5587 379.657 25.0222 379.527 25.7984Z" fill="black" />
    <path d="M375.236 18.553C375.186 19.8063 376.189 25.271 377.392 25.3212C378.595 25.3713 379.648 21.6111 380.45 20.9093C381.252 20.2075 386.516 19.6559 386.266 18.0516C386.015 16.4473 380.851 15.1438 379.197 15.2442C377.542 15.3446 375.286 17.2997 375.236 18.553Z" fill="black" />
    <path d="M393.779 20.2452C392.091 21.6768 383.788 32.8676 383.761 34.4888C383.733 36.1099 387.195 35.5568 388.347 35.8166C389.5 36.0763 398.52 31.5322 400.78 31.109C403.041 30.6857 409.399 33.0296 411.161 31.9539C412.923 30.8783 413.876 29.2616 413.817 27.2463C413.758 25.231 413.693 25.5609 412.73 23.0215C411.768 20.4821 407.789 18.0435 402.35 17.7103C396.91 17.3772 395.468 18.8136 393.779 20.2452Z" fill="black" />
    <path d="M193.141 248.058C191.081 247.801 186.327 242.946 187.102 242.451C187.878 241.955 192.54 243.163 194.81 242.993C197.08 242.823 198.609 240.584 200.422 240.499C202.236 240.414 203.44 241.57 202.828 243.26C202.215 244.951 201.128 246.533 199.799 247.269C198.47 248.005 195.201 248.315 193.141 248.058Z" fill="black" />
    <path d="M194.009 234.53C193.008 235.633 186.353 238.601 186.971 239.073C187.589 239.546 192.921 239.963 194.543 239.875C196.165 239.787 198.359 239.536 199.888 238.361C201.417 237.186 202.938 234.701 202.828 232.57C202.717 230.44 200.116 229.621 198.641 229.453C197.166 229.284 195.009 233.428 194.009 234.53Z" fill="black" />
    <path d="M183.675 228.74C183.327 230.123 182.243 236.979 183.23 237.203C184.216 237.426 188.345 235.474 189.822 234.619C191.299 233.765 195.989 230.761 195.523 227.493C195.057 224.225 191.106 221.093 188.307 221.257C185.519 221.42 184.034 227.314 183.679 228.725L183.675 228.74Z" fill="black" />
    <path d="M171.382 233.729C172.364 234.632 180.271 240.166 180.557 239.519C180.843 238.872 180.497 232.01 180.646 230.165C180.795 228.32 183.879 222.298 182.962 221.079C182.046 219.86 177.567 219.985 175.301 220.099C173.035 220.213 171.11 220.6 169.689 223.039C168.268 225.478 170.4 232.825 171.382 233.729Z" fill="black" />
    <path d="M169.065 235.599C172.508 235.403 178.675 241.281 179.132 242.459C179.588 243.637 168.654 247.785 167.017 247.358C165.379 246.931 164.149 244.909 164.522 241.746C164.896 238.583 165.623 235.796 169.065 235.599Z" fill="black" />
    <path d="M182.695 252.08C182.867 250.387 181.181 244.316 180.735 243.795C180.29 243.274 176.989 249.231 174.856 249.585C172.723 249.94 168.75 249.038 167.373 249.674C165.996 250.311 168.821 256.171 170.135 257.157C171.448 258.144 174.657 259.426 177.172 258.761C179.687 258.096 182.523 253.772 182.695 252.08Z" fill="black" />
    <path d="M155.102 45.8763C153.856 47.4621 151.364 55.2242 151.477 56.0715C151.59 56.9187 158.979 56.5891 162.805 54.259C165.076 52.876 167.676 52.6731 167.676 49.5013C167.676 46.3294 163.032 43.2709 160.993 42.931C158.954 42.5912 156.348 44.2904 155.102 45.8763Z" fill="black" />
    <path d="M158.954 63.0949C157.575 61.6659 154.649 60.716 154.083 59.5832C153.516 58.4504 165.028 57.2843 166.77 57.3176C168.512 57.351 173.136 57.6371 175.039 58.5637C176.943 59.4903 180.635 64.2302 180.817 66.2667C180.999 68.3032 176.985 69.3057 176.512 70.6846C176.039 72.0635 176.65 73.794 175.493 75.4424C174.336 77.0907 171.029 76.8142 168.809 75.6689C166.589 74.5237 160.332 64.5238 158.954 63.0949Z" fill="black" />
    <path d="M174.343 49.8845C171.49 49.5909 165.114 54.5406 164.443 55.3795C163.772 56.2184 169.77 55.0439 171.197 55.2117C172.623 55.3795 178.789 59.9097 180.047 59.8258C181.306 59.7419 182.27 56.6379 181.599 54.6245C180.928 52.611 177.195 50.1781 174.343 49.8845Z" fill="black" />
    <path d="M39.7971 146.745C41.3957 145.149 44.9782 137.965 44.6521 136.533C44.3259 135.101 36.3709 135.253 32.2636 135.361C28.1563 135.469 19.1555 136.277 19.038 140.216C18.9206 144.155 23.7212 150.551 29.2502 150.596C34.7792 150.64 38.1985 148.341 39.7971 146.745Z" fill="black" />
    <path d="M36.1714 122.413C40.2239 125.054 44.0939 131.834 43.4819 132.411C42.87 132.988 33.6591 131.421 30.366 131.658C27.0728 131.896 19.628 135.548 18.3251 135.206C17.0221 134.865 15.1475 128.65 16.1749 125.853C17.2023 123.056 21.1273 120.348 25.4206 119.618C29.6971 118.89 32.5369 120.044 36.1714 122.413Z" fill="black" />
    <path d="M39.7191 114.135C39.707 116.421 42.9148 124.582 42.1918 124.563C41.4688 124.543 38.2575 120.102 37.2465 119.403C36.2355 118.703 28.401 114.621 29.2909 107.899C30.1808 101.178 38.8053 97.8771 39.5041 98.761C40.2029 99.6449 39.7313 111.848 39.7191 114.135Z" fill="black" />
    <path d="M46.0621 107.684C45.3319 111.966 50.4131 130.595 51.115 130.153C51.8169 129.711 62.4875 109.431 62.2958 108.222C62.1041 107.012 59.304 105.246 59.2856 102.524C59.2671 99.8021 60.7189 97.7584 58.748 96.2884C56.7772 94.8184 46.7923 103.402 46.0621 107.684Z" fill="black" />
    <path d="M46.3846 95.6433C45.9546 97.1486 44.4242 102.798 46.3846 101.019C48.3451 99.2392 49.9324 97.6858 50.685 96.7184C51.4375 95.7509 51.33 94.3532 50.3624 93.9232C49.3949 93.4931 46.8147 94.138 46.3846 95.6433Z" fill="black" />
    <path d="M59.6081 119.403C58.9689 118.762 55.917 124.991 56.4904 124.993C57.0638 124.995 59.363 123.816 59.7757 123.168C60.1883 122.519 60.2473 120.043 59.6081 119.403Z" fill="black" />
    <path d="M60.8982 124.348C59.6036 124.113 51.6616 132.354 51.975 132.949C52.2885 133.543 55.1679 133.37 56.7054 133.486C58.2429 133.602 61.4176 137.802 64.0159 138.001C66.6143 138.201 71.898 139.158 72.6166 138.001C73.3351 136.845 73.6888 129.004 73.3691 128.111C73.0494 127.217 67.7344 128.827 65.8436 128.433C63.9527 128.039 62.1928 124.582 60.8982 124.348Z" fill="black" />
    <path d="M41.4393 149.397C41.3786 146.975 45.6267 140.618 46.8147 139.829C48.0026 139.04 54.4916 139.744 55.6303 140.152C56.769 140.559 59.437 145.12 58.103 146.495C56.769 147.869 53.2318 146.808 51.6525 147.785C50.0733 148.761 47.6311 153.057 45.3096 152.945C42.988 152.833 41.4999 151.819 41.4393 149.397Z" fill="black" />
    <path d="M60.3607 141.979C60.1203 141.395 58.9503 140.382 59.2856 139.614C59.6209 138.846 61.4348 140.521 62.4033 141.012C63.3719 141.502 68.1143 140.226 68.1012 141.012C68.0882 141.797 66.4375 144.804 65.9511 145.204C65.4647 145.605 61.0137 147.044 60.3607 146.817C59.7076 146.59 60.601 142.563 60.3607 141.979Z" fill="black" />
    <path d="M70.1439 141.227C69.6056 141.894 67.379 144.967 67.0262 146.064C66.6733 147.162 72.7512 144.69 73.6916 144.452C74.6321 144.214 84.6122 143.85 85.5175 143.914C86.4229 143.978 91.0663 147.194 92.0755 147.355C93.0846 147.516 99.8857 141.426 99.8161 137.249C99.7464 133.072 95.6197 128.65 92.9356 128.648C90.2515 128.646 90.4317 129.947 89.9253 130.583C89.419 131.219 89.6653 135.489 89.2803 136.389C88.8953 137.289 83.5341 141.561 81.9697 141.549C80.4054 141.537 77.6977 138.437 75.9493 138.431C74.2009 138.426 70.6821 140.559 70.1439 141.227Z" fill="black" />
    <path d="M45.3096 155.848C46.5086 154.979 54.2428 148.527 54.0177 150.902C53.7926 153.278 49.6835 160.144 49.2873 162.191C48.8912 164.238 50.2527 175.606 47.4597 177.457C44.6667 179.308 40.1097 178.737 37.999 178.102C35.8884 177.466 30.5901 173.403 31.3335 167.459C32.0769 161.515 44.1105 156.716 45.3096 155.848Z" fill="black" />
    <path d="M51.975 164.233C52.472 162.119 55.2902 152.733 56.7054 152.085C58.1206 151.437 57.3369 155.208 59.0706 155.74C60.8042 156.273 64.3229 156.455 66.2736 157.998C68.2243 159.54 66.4581 167.865 65.8436 169.931C65.229 171.998 59.715 180.099 55.0928 177.994C50.4705 175.89 51.4781 166.348 51.975 164.233Z" fill="black" />
    <path d="M62.5108 148.537C61.355 148.851 71.1538 158.54 73.0466 159.718C74.9394 160.896 79.7021 163.846 82.6148 163.696C85.5275 163.546 91.2571 161.723 91.8605 158.75C92.4639 155.777 91.9645 155.18 91.8605 153.16C91.7564 151.141 87.484 146.454 84.0124 145.957C80.5408 145.46 72.4508 148.046 70.5739 148.752C68.6971 149.458 63.6666 148.223 62.5108 148.537Z" fill="black" />
    <path d="M97.3434 154.665C96.65 155.507 94.6764 155.887 94.4407 156.923C94.2049 157.959 98.5992 156.946 100.676 156.063C102.753 155.18 104.522 152.055 104.654 150.795C104.786 149.535 101.987 149.933 100.246 150.472C98.5055 151.012 98.0368 153.824 97.3434 154.665Z" fill="black" />
    <path d="M101.214 173.909C102.304 171.486 103.343 165.968 101.751 164.878C100.16 163.789 94.1515 158.596 93.4707 159.6C92.7899 160.603 95.8841 165.34 95.8383 168.211C95.7925 171.082 91.9351 174.649 93.3656 175.414C94.7961 176.179 100.123 176.333 101.214 173.909Z" fill="black" />
    <path d="M104.439 165.846C104.12 164.25 99.0952 162.169 102.074 161.976C105.052 161.782 109.86 164.416 109.814 166.814C109.769 169.211 104.699 172.925 104.009 171.866C103.319 170.808 104.758 167.442 104.439 165.846Z" fill="black" />
    <path d="M104.761 157.138C104.058 157.622 99.7539 158.503 99.2785 159.288C98.8032 160.073 106.139 161.076 108.632 159.395C111.125 157.715 109.415 152.468 107.987 152.192C106.558 151.917 105.465 156.653 104.761 157.138Z" fill="black" />
    <path d="M63.6934 123.38C61.8337 121.294 63.0648 117.566 64.3385 117.36C65.6121 117.154 73.2761 123.993 73.6916 125.423C74.1072 126.853 65.5532 125.467 63.6934 123.38Z" fill="black" />
    <path d="M75.6268 113.812C73.2022 111.59 66.2693 113.955 66.0586 114.995C65.8479 116.034 75.1824 124.134 76.0568 124.24C76.9313 124.347 78.0514 116.034 75.6268 113.812Z" fill="black" />
    <path d="M82.3998 108.437C80.4401 109.093 79.9752 120.933 79.9271 122.198C79.879 123.462 83.5341 117.095 84.6575 116.392C85.7808 115.689 90.2549 113.912 91.0004 112.737C91.746 111.562 91.9645 109.903 91.1079 108.437C90.2513 106.971 84.3595 107.781 82.3998 108.437Z" fill="black" />
    <path d="M88.2052 116.607C87.484 116.565 81.6608 122.848 82.1848 123.273C82.7087 123.698 90.2479 122.861 91.4305 121.983C92.613 121.104 94.5585 117.98 94.4407 116.177C94.3229 114.375 88.9264 116.65 88.2052 116.607Z" fill="black" />
    <path d="M77.2394 134.884C76.0147 134.161 76.3616 125.646 77.8844 126.176C79.4073 126.705 82.7914 133.262 83.0448 134.346C83.2983 135.43 83.8878 138.142 82.9373 138.109C81.9868 138.076 78.4641 135.607 77.2394 134.884Z" fill="black" />
    <path d="M84.5499 133.056C84.3277 132.392 80.1973 126.277 81.2172 125.961C82.2371 125.644 86.0133 126.992 86.8076 127.143C87.6019 127.294 88.0837 133.342 87.9902 134.239C87.8967 135.135 84.3005 137.906 84.5499 137.034C84.7994 136.162 84.7721 133.72 84.5499 133.056Z" fill="black" />
    <path d="M98.6574 71.9677C98.6573 67.9601 101.826 52.6753 102.758 53.7006C103.69 54.7258 112.451 66.8417 112.078 70.756C111.705 74.6704 110.307 76.348 105.647 77.1868C100.987 78.0256 98.6574 75.9753 98.6574 71.9677Z" fill="black" />
    <path d="M109.189 51.0911C105.74 51.2776 105.368 50.2522 104.249 50.9979C103.131 51.7435 107.983 56.0051 111.239 58.1742C116.884 61.9345 123.821 63.7662 128.201 61.9021C132.582 60.0381 136.03 56.4966 136.683 53.1414C137.335 49.7862 136.962 46.7107 129.413 46.0583C121.864 45.4059 112.637 50.9046 109.189 51.0911Z" fill="black" />
    <path d="M104.436 46.2446C103.783 47.5491 102.758 48.0157 102.572 48.8542C102.385 49.6926 107.018 49.2504 109.841 48.9474C115.843 48.3032 120.559 44.4738 124.287 43.4486C128.015 42.4235 132.489 43.9146 134.259 42.9827C136.03 42.0507 135.937 40.7459 136.03 38.1363C136.123 35.5267 135.191 33.4763 131.743 31.9851C128.295 30.494 120.746 28.4437 114.688 32.4511C108.63 36.4586 105.088 44.9401 104.436 46.2446Z" fill="black" />
    <path d="M99.9621 45.8721C99.7757 48.8544 100.055 51.6505 99.4961 50.8116C98.9369 49.9728 93.6444 43.6056 90.4558 38.6026C87.9858 34.7271 84.7706 31.7059 84.6775 28.3507C84.5843 24.9955 88.5918 22.8519 91.8538 22.7587C95.1158 22.6656 97.9117 23.0382 101.36 27.0459C104.808 31.0535 104.436 35.3407 104.342 38.2298C104.249 41.1188 100.149 42.8898 99.9621 45.8721Z" fill="black" />
    <path d="M82.7203 31.2399C83.8386 32.1719 95.8615 49.1341 96.3274 50.4389C96.7933 51.7437 94.4635 49.6933 92.5995 48.9477C90.7355 48.2021 89.1511 48.9477 85.2368 48.4817C81.3224 48.0157 74.5188 45.4062 73.9596 40.653C73.4005 35.8998 77.1284 32.7311 78.1536 31.8923C79.1788 31.0535 81.602 30.3079 82.7203 31.2399Z" fill="black" />
    <path d="M89.5239 59.4792C89.5239 59.4792 100.055 52.9553 100.801 53.2349C101.547 53.5145 98.005 60.0384 97.539 62.3684C97.073 64.6984 96.2342 72.0611 96.4206 74.5775C96.607 77.0938 93.0654 80.5422 87.1007 79.3306C81.136 78.119 82.068 71.5951 82.7204 69.0787C83.3727 66.5623 89.5239 59.4792 89.5239 59.4792Z" fill="black" />
    <path d="M76.4375 72.8875C76.3808 72.2642 79.7805 69.6013 80.1204 70.1112C80.4603 70.6211 80.9702 76.2872 80.7437 76.8537C80.5171 77.4202 77.1741 78.7802 77.0041 78.2702C76.8341 77.7603 77.1741 75.3806 77.0608 74.7006C76.9474 74.0207 76.4941 73.5108 76.4375 72.8875Z" fill="black" />
    <path d="M81.2535 79.0635C80.177 79.1202 77.4006 79.7435 77.2873 80.1967C77.174 80.65 79.667 84.6162 83.2366 87.1093C86.8062 89.6023 94.7953 88.4124 96.0418 86.2027C97.2883 83.993 96.2684 80.3667 94.6253 80.2534C92.9822 80.1401 89.5825 81.9532 86.8062 82.0665C84.0299 82.1798 82.33 79.0069 81.2535 79.0635Z" fill="black" />
    <path d="M82.9533 94.7584C82.33 90.9055 77.9672 84.7862 77.174 84.1629C76.3807 83.5397 76.3805 87.6192 75.8708 88.6391C75.361 89.659 72.471 96.1749 72.1879 95.0417C71.9048 93.9085 73.4913 90.9055 73.7744 89.2624C74.0575 87.6192 74.6807 82.8598 74.2277 82.1798C73.7746 81.4999 64.3121 91.8687 62.5557 96.5148C60.7993 101.161 64.5955 107.507 67.8251 108.017C71.0547 108.527 71.7346 104.674 72.5845 104.787C73.4344 104.901 74.2277 107.054 77.1173 106.77C80.007 106.487 83.5766 98.6113 82.9533 94.7584Z" fill="black" />
    <path d="M67.5982 75.9472C69.2413 76.6271 72.5837 79.0635 73.1509 80.1967C73.7181 81.3299 64.0853 84.7295 61.2523 84.7295C58.4194 84.7295 56.3228 83.993 56.3795 80.9333C56.4362 77.8737 56.9462 74.0774 59.9491 74.0208C62.952 73.9641 65.9551 75.2673 67.5982 75.9472Z" fill="black" />
    <path d="M74.9068 73.3975C75.3034 75.0973 75.3601 77.9304 74.7935 78.2703C74.2269 78.6102 67.4277 73.0007 66.6911 72.7176C65.9545 72.4346 62.2716 73.0573 61.8183 72.661C61.365 72.2646 61.4217 70.7912 61.705 69.6013C61.9883 68.4115 64.9913 65.6351 67.541 65.8051C70.0907 65.975 74.5102 71.6978 74.9068 73.3975Z" fill="black" />
    <ellipse cx="259.837" cy="69.1664" rx="3.65313" ry="2.39939" transform="rotate(21.0907 259.837 69.1664)" fill="black" />
    <ellipse cx="115.608" cy="259.769" rx="2.54103" ry="2.66304" transform="rotate(21.0907 115.608 259.769)" fill="black" />
    <ellipse cx="179.456" cy="270.296" rx="2.54103" ry="2.66304" transform="rotate(-12.1044 179.456 270.296)" fill="black" />
  </g>
  <path class="leaves-border-stroke" d="M384.318 37.5715C384.318 37.5715 368.636 48.533 351.962 52.8508C335.287 57.1686 296.201 58.8809 285.452 60.041C274.702 61.2011 265.158 63.5269 261.185 64.5349C257.212 65.543 257.828 68.5779 257.828 68.5779M182.789 62.2177C182.789 62.2177 231.009 62.2177 238.496 61.7186C245.984 61.2194 254.37 59.622 258.663 58.5239C262.956 57.4257 271.542 54.6303 273.439 52.9331C275.335 51.2359 273.439 49.0396 273.439 49.0396M133.175 62.2177H153.414M110.995 61.6742C110.995 61.6742 111.739 62.2769 113.441 62.7023C115.143 63.1277 117.483 63.1277 117.483 63.1277M88.916 56.4761C88.916 56.4761 82.7718 57.9573 79.5296 60.2031C76.8033 62.0915 73.594 66.2767 73.594 66.2767M95.4521 53.3512C95.4521 53.3512 85.2764 52.3913 77.6928 54.5992C70.1091 56.8071 58.2054 66.2767 52.6376 75.3345C47.0699 84.3923 42.9419 91.6539 42.7499 107.589C42.5579 123.525 51.0056 136.772 51.0056 136.772M34.3982 96.7418C34.3982 96.7418 34.0931 92.2539 35.2621 85.7021C36.4311 79.1504 40.5667 72.257 41.118 68.1347C41.6693 64.0125 39.0572 63.6714 39.006 60.2031C38.9549 56.7348 40.2494 51.4802 44.3819 54.5992C48.5143 57.7182 43.6096 58.0782 47.2618 62.8549C50.914 67.6317 61.5653 60.839 61.5653 60.839M69.7248 62.8549L73.594 61.3292M82.0624 62.8549H83.6127M55.208 94.8293C55.208 94.8293 55.915 92.0933 56.712 90.4843C57.363 89.1701 58.7174 87.3091 58.7174 87.3091M60.536 179.938C60.536 179.938 59.3872 188.835 59.3872 208.12C59.3872 227.406 65.4188 238.822 65.4188 238.822M70.224 244.17L71.3091 245.1M77.4319 249.285L82.5472 252.541M92.8553 257.888C92.8553 257.888 98.7758 261.213 102.931 262.306C106.471 263.237 108.511 264.089 112.231 263.469C115.952 262.849 116.649 260.059 116.649 260.059M184.887 252.099C184.887 252.099 188.101 256.854 188.372 260.336C188.639 263.765 188.68 266.427 186.281 268.89C184.286 270.938 179.438 271.488 179.438 271.488M183.873 240.44C183.873 240.44 183.502 241.902 183.873 243.292C184.244 244.681 187.809 249.654 191.857 251.655C197.932 254.659 205.086 252.883 209.155 250.261C213.223 247.64 216.621 244.753 215.998 238.032C215.375 231.312 210.294 226.996 204.149 222.445C193.778 214.766 184.349 217.11 171.455 217.643C158.577 218.175 151.562 221.118 139.306 225.11C126.414 229.309 119.207 232.139 107.41 238.822C98.5673 243.832 85.893 253.462 85.893 253.462M161.776 241.249C161.776 241.249 152.193 240.255 146.044 240.44C134.849 240.777 128.674 242.772 117.821 245.539C100.693 249.907 79.0781 260.059 75.4875 261.557C71.8969 263.056 68.8133 263.469 67.4784 262.306C66.1436 261.144 65.3157 259.208 65.4188 256.981C65.5388 254.386 67.6195 251.832 68.8133 251.26C70.0071 250.688 71.0583 251.715 72.3411 250.688C73.6239 249.661 74.7149 246.889 75.4875 244.17C76.7155 239.849 75.4875 181.456 75.4875 181.456M73.8507 266.31C73.8507 266.31 68.7109 270.955 65.4188 272.86C62.1267 274.765 58.6922 274.783 57.319 272.86C55.9459 270.937 56.5028 264.787 57.5462 259.79C59.2152 251.796 63.2025 248.319 67.7573 241.542C68.619 240.259 69.8041 239.105 70.0141 235.102C70.224 231.099 70.0956 187.205 70.0956 182.644C70.0956 178.082 75.7158 177.633 76.4488 175.922C77.1819 174.212 77.0392 170.777 75.7158 167.94C74.3273 164.964 69.6883 162.075 69.6883 162.075M139.424 53.3665C139.424 53.3665 141.901 53.7293 143.416 54.2296C146.702 55.3152 150.968 58.8689 150.968 58.8689M68.2672 167.559C68.2672 167.559 70.1638 169.137 71.0188 170.435C71.9466 171.844 72.6447 174.438 72.6447 174.438M59.3872 149.548L61.2632 152.425" stroke="black" stroke-width="3" stroke-linecap="round" />
</svg>